#define close_width 20
#define close_height 20
static unsigned char close_bits[] = {
   0xff, 0xff, 0x07, 0xff, 0xff, 0x07, 0xff, 0xff,
   0x07, 0xff, 0xff, 0x07, 0xff, 0xff, 0x07, 0xff,
   0xff, 0x07, 0xff, 0xff, 0x07, 0xff, 0xff, 0x07,
   0xff, 0xff, 0x07, 0xff, 0xff, 0x07, 0xff, 0xff,
   0x07, 0xff, 0xff, 0x07, 0xff, 0xff, 0x07, 0xff,
   0xff, 0x07, 0xff, 0xff, 0x07, 0xff, 0xff, 0x07,
   0xff, 0xff, 0x07, 0xff, 0xff, 0x07, 0xff, 0xff,
   0x07, 0x00, 0x00, 0x00};
