#define iconify_width 20
#define iconify_height 20
static unsigned char iconify_bits[] = {
   0xff, 0xff, 0x07, 0xff, 0xff, 0x07, 0xff, 0xff,
   0x07, 0xff, 0xff, 0x07, 0xff, 0xff, 0x07, 0xff,
   0xff, 0x07, 0xff, 0xff, 0x07, 0xff, 0xff, 0x07,
   0xff, 0xff, 0x07, 0xff, 0xff, 0x07, 0xff, 0xff,
   0x07, 0xff, 0xff, 0x07, 0xff, 0xff, 0x07, 0xff,
   0xff, 0x07, 0xff, 0xff, 0x07, 0xff, 0xff, 0x07,
   0xff, 0xff, 0x07, 0xff, 0xff, 0x07, 0xff, 0xff,
   0x07, 0x00, 0x00, 0x00};
