#define max_width 20
#define max_height 20
static unsigned char max_bits[] = {
   0xff, 0xff, 0x07, 0xff, 0xff, 0x07, 0xff, 0xff,
   0x07, 0xff, 0xff, 0x07, 0xff, 0xff, 0x07, 0xff,
   0xff, 0x07, 0xff, 0xff, 0x07, 0xff, 0xff, 0x07,
   0xff, 0xff, 0x07, 0xff, 0xff, 0x07, 0xff, 0xff,
   0x07, 0xff, 0xff, 0x07, 0xff, 0xff, 0x07, 0xff,
   0xff, 0x07, 0xff, 0xff, 0x07, 0xff, 0xff, 0x07,
   0xff, 0xff, 0x07, 0xff, 0xff, 0x07, 0xff, 0xff,
   0x07, 0x00, 0x00, 0x00};
